# xmcd CD database file
#
# Track frame offsets:
#	150
#	23667
#	48924
#	84810
#	112739
#	140258
#	167134
#	197373
#	225281
#	246518
#	268862
#	285400
#	314885
#
# Disc length: 4551 seconds
#
# Revision: 0
# Processed by: cddbd v1.5.2PL0 Copyright (c) Steve Scherf et al.
# Submitted via: CDex 1.51
#
DISCID=a311c50d
DTITLE=Joshua Redman - Back East
DYEAR=2007
DGENRE=Jazz
TTITLE0=The Surrey with the Fringe on Top
TTITLE1=East of the Sun (and West of the Moon)
TTITLE2=Zarafah
TTITLE3=Indian Song
TTITLE4=I'm an Old Cowhand
TTITLE5=Wagon Wheels
TTITLE6=Back East
TTITLE7=Mantra #5
TTITLE8=Indonesia
TTITLE9=India
TTITLE10=GJ
TTITLE11=Crisis
TTITLE12=Extra Sauce
EXTD=YEAR: 2007
EXTT0=
EXTT1=
EXTT2=
EXTT3=
EXTT4=
EXTT5=
EXTT6=
EXTT7=
EXTT8=
EXTT9=
EXTT10=
EXTT11=
EXTT12=
PLAYORDER=
